<?xml version="1.0" standalone="no"?><!DOCTYPE svg PUBLIC "-//W3C//DTD SVG 1.1//EN" "http://www.w3.org/Graphics/SVG/1.1/DTD/svg11.dtd"><svg t="1588077800648" class="icon" viewBox="0 0 1129 1024" version="1.1" xmlns="http://www.w3.org/2000/svg" p-id="2744" xmlns:xlink="http://www.w3.org/1999/xlink" width="220.5078125" height="200"><defs><style type="text/css"></style></defs><path d="M350.34396922 155.69849693a53.65689385 53.65689385 0 0 1 45.60849314 0 111.60671262 111.60671262 0 0 1 27.90134475 20.38972633l107.3144545 93.90023106h76.72986498l107.3137877-93.90023106a112.67961043 112.67961043 0 0 1 27.90134475-20.38972633A53.65689385 53.65689385 0 0 1 814.47796808 200.23409222a53.65689385 53.65689385 0 0 1-11.80454332 35.95041228 299.94329022 299.94329022 0 0 1-23.60908662 21.46262418 155.0687433 155.0687433 0 0 1-15.02390361 12.34132564h67.07111731a113.75317508 113.75317508 0 0 1 78.87632744 35.41362996 114.28929058 114.28929058 0 0 1 35.95041226 78.87566062v308.52847325a217.31148698 217.31148698 0 0 1-2.68324477 46.68139097 119.11899783 119.11899783 0 0 1-53.65689385 75.12018482 115.36285522 115.36285522 0 0 1-61.70596138 17.17036608h-492.57279273a227.50635017 227.50635017 0 0 1-48.2910711-2.68324478A118.58221552 118.58221552 0 0 1 212.9817075 775.43802139a114.8260729 114.8260729 0 0 1-18.2439307-61.70596137V408.42361387a240.3837913 240.3837913 0 0 1 0-44.53559532A118.04543319 118.04543319 0 0 1 302.0522313 268.37877417h70.29114442c-11.26842782-8.04840071-20.92650866-17.70714837-31.12137185-26.29233141a53.65689385 53.65689385 0 0 1-17.17036607-43.998813 53.65689385 53.65689385 0 0 1 26.29233142-42.38913283M338.00197678 363.88801855a53.65689385 53.65689385 0 0 0-42.38913285 38.63299023 72.43694006 72.43694006 0 0 0 0 20.38972637v253.79801476a53.65689385 53.65689385 0 0 0 37.0233101 53.65756066 70.82725991 70.82725991 0 0 0 23.07230431 3.7554758h436.23265412a53.65689385 53.65689385 0 0 0 50.97364907-31.65748736 75.12018484 75.12018484 0 0 0 5.36582275-35.41362996v-236.09086638a90.14408844 90.14408844 0 0 0 0-25.7555491 53.65689385 53.65689385 0 0 0-34.87684764-36.48719458 86.38794583 86.38794583 0 0 0-33.2671675-4.82904044H363.22074355a179.21461225 179.21461225 0 0 0-25.21876677 0z m0 0" fill="#2c2c2c" p-id="2745"></path><path d="M426.00026957 447.59338642a53.65689385 53.65689385 0 0 1 37.02331009 12.34065883 53.65689385 53.65689385 0 0 1 18.78004622 39.70655487v53.65689386a53.65689385 53.65689385 0 0 1-10.7316455 34.34073212 53.65689385 53.65689385 0 0 1-87.99762598-6.43872056 69.7543621 69.7543621 0 0 1-6.97483608-36.48719459v-53.65689385a53.65689385 53.65689385 0 0 1 46.68139096-45.07171082z m277.40643459 0a53.65689385 53.65689385 0 0 1 57.41370326 50.43753357v53.65689384a62.7788592 62.7788592 0 0 1-8.0484007 35.41429675 53.65689385 53.65689385 0 0 1-88.53440831 0 63.85175703 63.85175703 0 0 1-8.58518303-38.09687473V495.3476752a53.65689385 53.65689385 0 0 1 46.68139095-47.21817327z m0 0" fill="#2c2c2c" p-id="2746"></path></svg>